<svg xmlns="http://www.w3.org/2000/svg" width="65.212" height="65.212" viewBox="0 0 65.212 65.212">
  <path id="times-circle" d="M40.606,8A32.606,32.606,0,1,0,73.212,40.606,32.6,32.6,0,0,0,40.606,8ZM56.593,49.165a1.579,1.579,0,0,1,0,2.235l-5.206,5.193a1.579,1.579,0,0,1-2.235,0l-8.546-8.625-8.559,8.625a1.579,1.579,0,0,1-2.235,0l-5.193-5.206a1.579,1.579,0,0,1,0-2.235l8.625-8.546-8.625-8.559a1.579,1.579,0,0,1,0-2.235l5.206-5.206a1.579,1.579,0,0,1,2.235,0l8.546,8.638,8.559-8.625a1.579,1.579,0,0,1,2.235,0l5.206,5.206a1.579,1.579,0,0,1,0,2.235l-8.638,8.546Z" transform="translate(-8 -8)" fill="#b9b9b9"/>
</svg>
